<?xml version="1.0" standalone="no"?><!DOCTYPE svg PUBLIC "-//W3C//DTD SVG 1.1//EN" "http://www.w3.org/Graphics/SVG/1.1/DTD/svg11.dtd"><svg class="icon" height="512" viewBox="0 0 1024 1024" version="1.1" xmlns="http://www.w3.org/2000/svg"><path d="M505.229752 152.330579m-152.330578 0a152.330579 152.330579 0 1 0 304.661157 0 152.330579 152.330579 0 1 0-304.661157 0Z" fill="#32a563" /><path d="M813.276033 311.431405m-141.328926 0a141.328926 141.328926 0 1 0 282.657852 0 141.328926 141.328926 0 1 0-282.657852 0Z" fill="#32a563" /><path d="M877.593388 616.092562m-121.018181 0a121.018182 121.018182 0 1 0 242.036363 0 121.018182 121.018182 0 1 0-242.036363 0Z" fill="#32a563" /><path d="M735.418182 840.357025m-108.323967 0a108.323967 108.323967 0 1 0 216.647934 0 108.323967 108.323967 0 1 0-216.647934 0Z" fill="#32a563" /><path d="M506.922314 924.138843m-99.861157 0a99.861157 99.861157 0 1 0 199.722314 0 99.861157 99.861157 0 1 0-199.722314 0Z" fill="#32a563" /><path d="M285.196694 869.97686m-88.013223 0a88.013223 88.013223 0 1 0 176.026446 0 88.013223 88.013223 0 1 0-176.026446 0Z" fill="#32a563" /><path d="M146.406612 721.877686m-82.089257 0a82.089256 82.089256 0 1 0 164.178513 0 82.089256 82.089256 0 1 0-164.178513 0Z" fill="#32a563" /><path d="M97.322314 539.080992m-71.933884 0a71.933884 71.933884 0 1 0 143.867768 0 71.933884 71.933884 0 1 0-143.867768 0Z" fill="#32a563" /><path d="M129.480992 382.519008m-60.932232 0a60.932231 60.932231 0 1 0 121.864463 0 60.932231 60.932231 0 1 0-121.864463 0Z" fill="#32a563" /><path d="M205.646281 263.193388m-48.238017 0a48.238017 48.238017 0 1 0 96.476034 0 48.238017 48.238017 0 1 0-96.476034 0Z" fill="#32a563" /></svg>